<svg width="16" height="16" viewBox="0 0 16 16" fill="none" xmlns="http://www.w3.org/2000/svg">
<path d="M14.2623 0H1.7377C0.777997 0 0 0.777997 0 1.7377V14.2623C0 15.222 0.777997 16 1.7377 16H14.2623C15.222 16 16 15.222 16 14.2623V1.7377C16 0.777997 15.222 0 14.2623 0Z" fill="#0273B3"/>
<path fill-rule="evenodd" clip-rule="evenodd" d="M10.7869 12.7541H12.7869V9.0164C12.8197 8.52459 12.6558 7.73771 12.459 7.31148C12.2295 6.85246 11.9017 6.55738 11.3771 6.39344C10.8525 6.22951 10.1312 6.19672 9.60659 6.39344C9.21315 6.52459 8.98364 6.72131 8.72134 7.0164C8.68856 7.04918 8.65577 7.08197 8.62298 7.14754C8.59019 7.18033 8.59019 7.21312 8.55741 7.21312C8.52462 7.31148 8.59019 7.27869 8.49183 7.27869V6.39344H6.62298C6.59019 6.49181 6.59019 12.6885 6.62298 12.7869H8.55741C8.59019 12.6557 8.59019 10.1639 8.59019 9.83607C8.59019 8.85246 8.68856 8.03279 9.70495 8C10.7869 7.93443 10.7869 8.88525 10.7869 9.83607C10.7869 10.0656 10.8197 12.5902 10.7869 12.7541ZM4.22954 3.2459C3.63938 3.34426 3.14757 3.83607 3.24593 4.55738C3.31151 5.14754 3.86888 5.63935 4.55741 5.54099C5.11479 5.44262 5.60659 4.91803 5.50823 4.22951C5.44265 3.67213 4.88528 3.14754 4.22954 3.2459ZM3.40987 12.7869H5.34429C5.37708 12.623 5.37708 11.4426 5.37708 11.1803C5.37708 9.63935 5.37708 7.96722 5.37708 6.42623H3.40987V12.7869Z" fill="white"/>
<path fill-rule="evenodd" clip-rule="evenodd" d="M8.55739 12.7869H6.62297C6.59018 12.6885 6.59018 6.49179 6.62297 6.39343H8.39346L5.18034 3.57376C5.37706 3.7377 5.47543 3.9672 5.50821 4.2295C5.60657 4.91802 5.11477 5.44261 4.55739 5.54097C4.22952 5.57376 3.93444 5.4754 3.70493 5.31147L4.7869 6.42622H5.37706C5.37706 7.9672 5.37706 9.63933 5.37706 11.1803C5.37706 11.4426 5.37706 12.6229 5.34428 12.7869H3.40985L6.65575 16H14.2951L16 14.2951V10.7541L12.1967 6.91802C12.2951 7.04917 12.3935 7.18032 12.459 7.31147C12.6558 7.7377 12.8197 8.52458 12.7869 9.01638V12.7541H10.7869C10.8197 12.5902 10.7869 10.0656 10.7869 9.83606C10.7869 8.88524 10.7869 7.93442 9.70493 7.99999C8.68854 8.03278 8.59018 8.85245 8.59018 9.83606C8.59018 10.1639 8.59018 12.6557 8.55739 12.7869Z" fill="#025E91"/>
<path fill-rule="evenodd" clip-rule="evenodd" d="M8.85242 6.88525L8.49176 6.5246V7.2787C8.59012 7.2787 8.52455 7.31148 8.55733 7.21312L8.62291 7.14755L8.72127 7.0164C8.75406 6.95083 8.78684 6.91804 8.85242 6.88525Z" fill="#025E91"/>
</svg>
