<svg width="157" height="59" viewBox="0 0 157 59" fill="none" xmlns="http://www.w3.org/2000/svg">
<path d="M7.701 30.019H3.349V35H1.02V23.1H3.349V27.945H7.701V23.1H10.03V35H7.701V30.019ZM15.0342 29.917H14.4222V35H12.0932V23.1H14.4222V28.37L14.9662 28.132L18.2472 23.1H20.8992L17.4312 28.098L16.5132 28.744L17.4652 29.407L21.4262 35H18.5532L15.0342 29.917Z" fill="white"/>
<line x1="37.5" y1="9" x2="37.5" y2="49" stroke="white" stroke-opacity="0.49"/>
<path d="M56.568 29.543H50.856V35H49.445V23.1H50.856V28.285H56.568V23.1H57.979V35H56.568V29.543ZM60.5949 27.129C61.0255 26.8683 61.5242 26.6757 62.0909 26.551C62.6689 26.4263 63.2695 26.364 63.8929 26.364C64.4822 26.364 64.9525 26.4433 65.3039 26.602C65.6665 26.7607 65.9385 26.9703 66.1199 27.231C66.3125 27.4803 66.4372 27.758 66.4939 28.064C66.5619 28.37 66.5959 28.676 66.5959 28.982C66.5959 29.662 66.5789 30.325 66.5449 30.971C66.5109 31.617 66.4939 32.229 66.4939 32.807C66.4939 33.2263 66.5109 33.623 66.5449 33.997C66.5789 34.371 66.6412 34.7167 66.7319 35.034H65.7289L65.3719 33.844H65.2869C65.1849 34.0027 65.0545 34.1613 64.8959 34.32C64.7485 34.4673 64.5672 34.6033 64.3519 34.728C64.1365 34.8413 63.8872 34.9377 63.6039 35.017C63.3205 35.0963 62.9975 35.136 62.6349 35.136C62.2722 35.136 61.9322 35.0793 61.6149 34.966C61.3089 34.8527 61.0425 34.694 60.8159 34.49C60.5892 34.2747 60.4079 34.0197 60.2719 33.725C60.1472 33.4303 60.0849 33.096 60.0849 32.722C60.0849 32.2233 60.1869 31.8097 60.3909 31.481C60.5949 31.141 60.8782 30.8747 61.2409 30.682C61.6149 30.478 62.0569 30.3363 62.5669 30.257C63.0882 30.1663 63.6605 30.121 64.2839 30.121C64.4425 30.121 64.5955 30.121 64.7429 30.121C64.9015 30.121 65.0602 30.1323 65.2189 30.155C65.2529 29.815 65.2699 29.509 65.2699 29.237C65.2699 28.6137 65.1452 28.1773 64.8959 27.928C64.6465 27.6787 64.1932 27.554 63.5359 27.554C63.3432 27.554 63.1335 27.571 62.9069 27.605C62.6915 27.6277 62.4649 27.6673 62.2269 27.724C62.0002 27.7693 61.7792 27.8317 61.5639 27.911C61.3599 27.979 61.1785 28.0583 61.0199 28.149L60.5949 27.129ZM63.0089 33.946C63.3262 33.946 63.6095 33.9063 63.8589 33.827C64.1082 33.7363 64.3235 33.6287 64.5049 33.504C64.6862 33.368 64.8335 33.2207 64.9469 33.062C65.0715 32.9033 65.1622 32.7503 65.2189 32.603V31.192C65.0602 31.1807 64.8959 31.175 64.7259 31.175C64.5672 31.1637 64.4085 31.158 64.2499 31.158C63.8985 31.158 63.5529 31.1807 63.2129 31.226C62.8842 31.26 62.5895 31.3337 62.3289 31.447C62.0795 31.549 61.8755 31.6963 61.7169 31.889C61.5695 32.0703 61.4959 32.3027 61.4959 32.586C61.4959 32.9827 61.6375 33.3113 61.9209 33.572C62.2042 33.8213 62.5669 33.946 63.0089 33.946ZM69.9805 31.209V30.104H71.1705C71.3745 30.104 71.5728 30.07 71.7655 30.002C71.9695 29.934 72.1508 29.8433 72.3095 29.73C72.4681 29.6053 72.5928 29.4637 72.6835 29.305C72.7855 29.135 72.8365 28.9593 72.8365 28.778C72.8365 28.336 72.6835 28.0243 72.3775 27.843C72.0715 27.6617 71.6125 27.571 71.0005 27.571C70.5585 27.571 70.1505 27.639 69.7765 27.775C69.4138 27.911 69.1305 28.0413 68.9265 28.166L68.5355 27.112C68.8755 26.9193 69.2721 26.7493 69.7255 26.602C70.1901 26.4547 70.7398 26.381 71.3745 26.381C73.2558 26.381 74.1965 27.078 74.1965 28.472C74.1965 28.8687 74.0661 29.2597 73.8055 29.645C73.5561 30.019 73.1935 30.2853 72.7175 30.444V30.512C73.3861 30.6367 73.8508 30.8747 74.1115 31.226C74.3835 31.5773 74.5195 32.042 74.5195 32.62C74.5195 32.9827 74.4458 33.317 74.2985 33.623C74.1511 33.929 73.9301 34.1953 73.6355 34.422C73.3408 34.6487 72.9668 34.83 72.5135 34.966C72.0715 35.0907 71.5558 35.153 70.9665 35.153C70.3885 35.153 69.9068 35.102 69.5215 35C69.1475 34.898 68.8075 34.7733 68.5015 34.626L68.8925 33.504C69.1531 33.6513 69.4648 33.7647 69.8275 33.844C70.2015 33.9233 70.6038 33.963 71.0345 33.963C71.7258 33.963 72.2528 33.844 72.6155 33.606C72.9781 33.368 73.1595 33.0053 73.1595 32.518C73.1595 32.11 72.9895 31.7927 72.6495 31.566C72.3095 31.328 71.7485 31.209 70.9665 31.209H69.9805ZM76.5324 27.129C76.963 26.8683 77.4617 26.6757 78.0284 26.551C78.6064 26.4263 79.207 26.364 79.8304 26.364C80.4197 26.364 80.89 26.4433 81.2414 26.602C81.604 26.7607 81.876 26.9703 82.0574 27.231C82.25 27.4803 82.3747 27.758 82.4314 28.064C82.4994 28.37 82.5334 28.676 82.5334 28.982C82.5334 29.662 82.5164 30.325 82.4824 30.971C82.4484 31.617 82.4314 32.229 82.4314 32.807C82.4314 33.2263 82.4484 33.623 82.4824 33.997C82.5164 34.371 82.5787 34.7167 82.6694 35.034H81.6664L81.3094 33.844H81.2244C81.1224 34.0027 80.992 34.1613 80.8334 34.32C80.686 34.4673 80.5047 34.6033 80.2894 34.728C80.074 34.8413 79.8247 34.9377 79.5414 35.017C79.258 35.0963 78.935 35.136 78.5724 35.136C78.2097 35.136 77.8697 35.0793 77.5524 34.966C77.2464 34.8527 76.98 34.694 76.7534 34.49C76.5267 34.2747 76.3454 34.0197 76.2094 33.725C76.0847 33.4303 76.0224 33.096 76.0224 32.722C76.0224 32.2233 76.1244 31.8097 76.3284 31.481C76.5324 31.141 76.8157 30.8747 77.1784 30.682C77.5524 30.478 77.9944 30.3363 78.5044 30.257C79.0257 30.1663 79.598 30.121 80.2214 30.121C80.38 30.121 80.533 30.121 80.6804 30.121C80.839 30.121 80.9977 30.1323 81.1564 30.155C81.1904 29.815 81.2074 29.509 81.2074 29.237C81.2074 28.6137 81.0827 28.1773 80.8334 27.928C80.584 27.6787 80.1307 27.554 79.4734 27.554C79.2807 27.554 79.071 27.571 78.8444 27.605C78.629 27.6277 78.4024 27.6673 78.1644 27.724C77.9377 27.7693 77.7167 27.8317 77.5014 27.911C77.2974 27.979 77.116 28.0583 76.9574 28.149L76.5324 27.129ZM78.9464 33.946C79.2637 33.946 79.547 33.9063 79.7964 33.827C80.0457 33.7363 80.261 33.6287 80.4424 33.504C80.6237 33.368 80.771 33.2207 80.8844 33.062C81.009 32.9033 81.0997 32.7503 81.1564 32.603V31.192C80.9977 31.1807 80.8334 31.175 80.6634 31.175C80.5047 31.1637 80.346 31.158 80.1874 31.158C79.836 31.158 79.4904 31.1807 79.1504 31.226C78.8217 31.26 78.527 31.3337 78.2664 31.447C78.017 31.549 77.813 31.6963 77.6544 31.889C77.507 32.0703 77.4334 32.3027 77.4334 32.586C77.4334 32.9827 77.575 33.3113 77.8584 33.572C78.1417 33.8213 78.5044 33.946 78.9464 33.946ZM85.102 26.5H86.037L86.292 27.52H86.36C86.6206 27.1233 86.955 26.823 87.363 26.619C87.7823 26.4037 88.2583 26.296 88.791 26.296C89.9243 26.296 90.7686 26.6303 91.324 27.299C91.8793 27.9677 92.157 29.0613 92.157 30.58C92.157 31.294 92.0606 31.94 91.868 32.518C91.6866 33.0847 91.426 33.5663 91.086 33.963C90.746 34.3597 90.3323 34.6657 89.845 34.881C89.369 35.0963 88.8363 35.204 88.247 35.204C87.8276 35.204 87.4933 35.1757 87.244 35.119C87.006 35.0737 86.7453 34.9887 86.462 34.864V38.4H85.102V26.5ZM88.536 27.486C87.958 27.486 87.499 27.639 87.159 27.945C86.8303 28.2397 86.598 28.693 86.462 29.305V33.521C86.666 33.6797 86.8983 33.8043 87.159 33.895C87.4196 33.9743 87.7653 34.014 88.196 34.014C88.978 34.014 89.5956 33.725 90.049 33.147C90.5136 32.5577 90.746 31.6963 90.746 30.563C90.746 30.0983 90.7063 29.679 90.627 29.305C90.5476 28.9197 90.4173 28.5967 90.236 28.336C90.066 28.064 89.8393 27.8543 89.556 27.707C89.284 27.5597 88.944 27.486 88.536 27.486ZM101.177 29.492H100.378V35H98.9675V23.1H100.378V28.642L101.143 28.404L105.138 23.1H106.77L102.792 28.217L102.078 28.778L102.945 29.458L107.297 35H105.512L101.177 29.492ZM111.706 32.008L112.182 33.64H112.267L112.641 31.991L114.29 26.5H115.667L113.151 34.133C112.959 34.6883 112.766 35.2267 112.573 35.748C112.392 36.2693 112.188 36.734 111.961 37.142C111.735 37.55 111.48 37.873 111.196 38.111C110.913 38.3603 110.584 38.485 110.21 38.485C109.802 38.485 109.468 38.4283 109.207 38.315L109.445 37.142C109.593 37.1987 109.734 37.227 109.87 37.227C110.188 37.227 110.494 37.057 110.788 36.717C111.083 36.3883 111.327 35.816 111.519 35L108.102 26.5H109.666L111.706 32.008ZM121.467 27.69H119.002C118.968 28.166 118.934 28.6817 118.9 29.237C118.866 29.781 118.815 30.3307 118.747 30.886C118.679 31.43 118.588 31.957 118.475 32.467C118.362 32.9657 118.214 33.4077 118.033 33.793C117.863 34.1783 117.648 34.49 117.387 34.728C117.138 34.9547 116.837 35.068 116.486 35.068C116.271 35.068 116.084 35.0567 115.925 35.034C115.766 35.0113 115.625 34.9717 115.5 34.915L115.704 33.776C115.84 33.8213 115.987 33.844 116.146 33.844C116.373 33.844 116.577 33.7477 116.758 33.555C116.939 33.3623 117.098 32.9997 117.234 32.467C117.37 31.923 117.483 31.175 117.574 30.223C117.665 29.271 117.727 28.03 117.761 26.5H122.827V35H121.467V27.69ZM130.867 27.69H128.198V35H126.838V27.69H124.169V26.5H130.867V27.69ZM132.081 27.129C132.512 26.8683 133.011 26.6757 133.577 26.551C134.155 26.4263 134.756 26.364 135.379 26.364C135.969 26.364 136.439 26.4433 136.79 26.602C137.153 26.7607 137.425 26.9703 137.606 27.231C137.799 27.4803 137.924 27.758 137.98 28.064C138.048 28.37 138.082 28.676 138.082 28.982C138.082 29.662 138.065 30.325 138.031 30.971C137.997 31.617 137.98 32.229 137.98 32.807C137.98 33.2263 137.997 33.623 138.031 33.997C138.065 34.371 138.128 34.7167 138.218 35.034H137.215L136.858 33.844H136.773C136.671 34.0027 136.541 34.1613 136.382 34.32C136.235 34.4673 136.054 34.6033 135.838 34.728C135.623 34.8413 135.374 34.9377 135.09 35.017C134.807 35.0963 134.484 35.136 134.121 35.136C133.759 35.136 133.419 35.0793 133.101 34.966C132.795 34.8527 132.529 34.694 132.302 34.49C132.076 34.2747 131.894 34.0197 131.758 33.725C131.634 33.4303 131.571 33.096 131.571 32.722C131.571 32.2233 131.673 31.8097 131.877 31.481C132.081 31.141 132.365 30.8747 132.727 30.682C133.101 30.478 133.543 30.3363 134.053 30.257C134.575 30.1663 135.147 30.121 135.77 30.121C135.929 30.121 136.082 30.121 136.229 30.121C136.388 30.121 136.547 30.1323 136.705 30.155C136.739 29.815 136.756 29.509 136.756 29.237C136.756 28.6137 136.632 28.1773 136.382 27.928C136.133 27.6787 135.68 27.554 135.022 27.554C134.83 27.554 134.62 27.571 134.393 27.605C134.178 27.6277 133.951 27.6673 133.713 27.724C133.487 27.7693 133.266 27.8317 133.05 27.911C132.846 27.979 132.665 28.0583 132.506 28.149L132.081 27.129ZM134.495 33.946C134.813 33.946 135.096 33.9063 135.345 33.827C135.595 33.7363 135.81 33.6287 135.991 33.504C136.173 33.368 136.32 33.2207 136.433 33.062C136.558 32.9033 136.649 32.7503 136.705 32.603V31.192C136.547 31.1807 136.382 31.175 136.212 31.175C136.054 31.1637 135.895 31.158 135.736 31.158C135.385 31.158 135.039 31.1807 134.699 31.226C134.371 31.26 134.076 31.3337 133.815 31.447C133.566 31.549 133.362 31.6963 133.203 31.889C133.056 32.0703 132.982 32.3027 132.982 32.586C132.982 32.9827 133.124 33.3113 133.407 33.572C133.691 33.8213 134.053 33.946 134.495 33.946ZM146.856 34.32C146.516 34.592 146.085 34.8073 145.564 34.966C145.054 35.1247 144.51 35.204 143.932 35.204C143.286 35.204 142.725 35.102 142.249 34.898C141.773 34.6827 141.382 34.3823 141.076 33.997C140.77 33.6003 140.543 33.13 140.396 32.586C140.248 32.042 140.175 31.43 140.175 30.75C140.175 29.2993 140.498 28.1943 141.144 27.435C141.79 26.6757 142.713 26.296 143.915 26.296C144.3 26.296 144.685 26.3413 145.071 26.432C145.456 26.5113 145.802 26.67 146.108 26.908C146.414 27.146 146.663 27.486 146.856 27.928C147.048 28.3587 147.145 28.931 147.145 29.645C147.145 30.019 147.111 30.4327 147.043 30.886H141.586C141.586 31.3847 141.637 31.8267 141.739 32.212C141.841 32.5973 141.999 32.926 142.215 33.198C142.43 33.4587 142.708 33.6627 143.048 33.81C143.399 33.946 143.824 34.014 144.323 34.014C144.708 34.014 145.093 33.946 145.479 33.81C145.864 33.674 146.153 33.5153 146.346 33.334L146.856 34.32ZM143.932 27.486C143.263 27.486 142.725 27.6617 142.317 28.013C141.92 28.3643 141.682 28.965 141.603 29.815H145.819C145.819 28.9537 145.654 28.353 145.326 28.013C144.997 27.6617 144.532 27.486 143.932 27.486ZM149.284 26.517C149.68 26.4943 150.094 26.466 150.525 26.432C150.967 26.398 151.511 26.381 152.157 26.381C153.279 26.381 154.083 26.5567 154.571 26.908C155.058 27.248 155.302 27.7693 155.302 28.472C155.302 28.8687 155.183 29.2597 154.945 29.645C154.718 30.019 154.338 30.2967 153.806 30.478V30.546C154.474 30.6707 154.945 30.903 155.217 31.243C155.489 31.583 155.625 32.0363 155.625 32.603C155.625 33.487 155.307 34.1273 154.673 34.524C154.038 34.9207 153.086 35.119 151.817 35.119C151.341 35.119 150.899 35.102 150.491 35.068C150.083 35.0453 149.68 35.017 149.284 34.983V26.517ZM150.644 33.861C150.859 33.8837 151.069 33.9007 151.273 33.912C151.488 33.9233 151.737 33.929 152.021 33.929C152.78 33.929 153.341 33.8213 153.704 33.606C154.078 33.3907 154.265 33.0223 154.265 32.501C154.265 32.093 154.106 31.7643 153.789 31.515C153.483 31.2543 152.933 31.124 152.14 31.124H150.644V33.861ZM152.31 30.087C152.514 30.087 152.712 30.053 152.905 29.985C153.097 29.917 153.267 29.8263 153.415 29.713C153.573 29.5883 153.698 29.4467 153.789 29.288C153.891 29.1293 153.942 28.9593 153.942 28.778C153.942 28.3247 153.806 28.013 153.534 27.843C153.262 27.6617 152.786 27.571 152.106 27.571C151.743 27.571 151.454 27.5767 151.239 27.588C151.035 27.5993 150.836 27.6107 150.644 27.622V30.087H152.31Z" fill="white"/>
</svg>
