<svg width="224" height="144" viewBox="0 0 224 144" fill="none" xmlns="http://www.w3.org/2000/svg">
<path d="M0 0V7.67219V136.328V144H223.108V136.328V7.67219V0H0ZM136.189 73.8887L115.938 92.2136C113.477 94.2731 109.624 94.2698 107.267 92.3007L86.9156 73.8887L87.0941 73.7313L13.5613 6.69767H209.596L136.011 73.7347L136.189 73.8887ZM76.318 73.7849L7.43695 133.468V11.4631L76.318 73.7849ZM81.561 78.5302L102.098 97.1129C104.735 99.3265 108.118 100.438 111.517 100.438C114.949 100.438 118.396 99.3031 121.114 97.0225L141.551 78.5302L209.365 137.302H13.7063L81.561 78.5302ZM146.794 73.7883L215.672 11.4597V133.468L146.794 73.7883Z" fill="black"/>
</svg>
