<svg width="144" height="144" viewBox="0 0 144 144" fill="none" xmlns="http://www.w3.org/2000/svg">
<g clip-path="url(#clip0)">
<path d="M115.718 143.991C109.728 143.991 102.493 142.49 94.5407 139.492C77.0922 132.911 58.1182 119.913 41.1006 102.895C24.0831 85.8776 11.0851 66.8988 4.50377 49.4454C-1.48675 33.5853 -1.50128 20.5679 4.45534 14.6113C5.31735 13.7493 6.1939 12.8292 7.09465 11.8848C12.5331 6.17033 18.8239 -0.323831 26.8193 0.0296916C32.4369 0.262145 37.8753 3.74895 43.4542 10.6741C59.9003 31.1349 52.486 38.4281 43.9046 46.8836L42.384 48.3848C40.9796 49.7892 38.3209 56.2882 63.0142 80.9767C71.0823 89.04 77.9493 94.9385 83.4362 98.5076C86.8988 100.755 93.0782 104.145 95.611 101.612L97.1364 100.072C105.582 91.5001 112.875 84.11 133.331 100.551C140.261 106.12 143.743 111.559 143.976 117.181C144.31 125.327 137.821 131.487 132.096 136.921C131.157 137.816 130.237 138.683 129.384 139.536C126.411 142.504 121.684 143.991 115.718 143.991ZM26.243 4.8531C20.4607 4.8531 15.2305 10.3545 10.6057 15.2166C9.67101 16.1949 8.76541 17.1489 7.87918 18.0351C3.4432 22.4663 3.89842 34.1277 9.03176 47.7407C15.3758 64.5597 27.9816 82.9332 44.5245 99.4761C61.0674 116.019 79.4361 128.62 96.2502 134.964C109.863 140.102 121.525 140.548 125.961 136.107C126.847 135.226 127.791 134.325 128.76 133.405C133.738 128.673 139.38 123.317 139.138 117.37C138.968 113.288 135.995 108.895 130.295 104.319C113.248 90.6235 108.488 95.4663 100.584 103.467L99.0348 105.031C95.272 108.813 89.1362 107.985 80.7969 102.561C75.034 98.8127 67.8957 92.6962 59.5904 84.3957C39.1006 63.9059 32.5435 51.3728 38.9601 44.9513L40.505 43.421C48.5343 35.5176 53.3771 30.7474 39.6769 13.7009C35.0956 8.01059 30.7032 5.03712 26.6207 4.86278C26.4948 4.85794 26.3641 4.8531 26.243 4.8531Z" fill="black"/>
<path d="M116.566 59.5175C116.261 59.5175 115.955 59.4594 115.655 59.3383C114.415 58.8347 113.815 57.4254 114.323 56.1905C117.403 48.597 115.641 39.943 109.849 34.1462C103.897 28.1944 94.7489 26.543 87.0731 29.9911C85.8673 30.5383 84.4193 30.0056 83.8721 28.7852C83.32 27.5649 83.8575 26.1314 85.0779 25.5842C94.5746 21.2838 105.902 23.3516 113.273 30.7272C120.445 37.8994 122.619 48.6067 118.808 58.0114C118.43 58.9412 117.52 59.5175 116.566 59.5175Z" fill="black"/>
<path d="M138.184 68.293C137.879 68.293 137.574 68.2349 137.273 68.1138C136.029 67.6102 135.433 66.2009 135.942 64.966C142.552 48.6604 138.789 30.0883 126.348 17.6472C113.573 4.87197 93.9257 1.28831 77.4602 8.73166C76.2398 9.26437 74.8064 8.74135 74.2543 7.52097C73.7071 6.29575 74.2446 4.86229 75.465 4.31021C93.7562 -3.95157 115.578 0.02435 129.772 14.2185C143.593 28.0398 147.777 48.6701 140.426 66.782C140.048 67.7215 139.138 68.293 138.184 68.293Z" fill="black"/>
</g>
<defs>
<clipPath id="clip0">
<rect width="144" height="144" fill="white"/>
</clipPath>
</defs>
</svg>
