<svg width="32" height="32" viewBox="0 0 32 32" fill="none" xmlns="http://www.w3.org/2000/svg">
<path d="M29.8893 13.3994C29.8854 11.535 30.0237 9.63488 29.9469 7.76096C29.9094 6.83328 29.8893 2.17856 29.8893 2.17856C28.9373 2.17856 27.6298 2.16352 26.6938 2.23648C24.2381 2.42752 2.09504 2.224 2.09504 2.224C2.09408 3.44608 2.09504 7.76736 2.09504 8.99456C2.09504 11.5552 2.056 14.0154 2.0368 16.5571C2.00416 20.9562 2.09504 25.4285 2.09504 29.7402L2.60352 29.7661C3.76544 29.6291 4.61472 29.76 5.71296 29.7402C7.6336 29.7053 16.0662 29.8858 18.2922 29.7981C20.3123 29.7187 28.9446 29.8275 29.7731 29.8035C29.7731 29.8035 29.9133 18.2109 29.8896 17.3651C29.8518 16.0266 29.8918 14.7232 29.8893 13.3994ZM25.5446 21.9037C24.8234 22.3552 21.8915 22.4896 21.1814 21.9738C20.7923 21.6909 20.4368 21.337 20.0982 21.0003C19.8618 20.7648 19.5933 20.6506 19.3904 20.3949C19.224 20.1856 19.1107 19.9389 18.9357 19.7328C18.641 19.3862 18.1872 19.0915 17.8278 19.5149C17.2877 20.1514 17.9133 21.4026 17.192 21.8781C16.9504 22.0378 16.7062 22.0838 16.4042 22.0611L15.735 22.0918C15.3421 22.0995 14.719 22.103 14.272 22.0221C13.7734 21.9322 13.3613 21.6598 12.9104 21.4595C12.0541 21.0797 11.2381 20.5626 10.6179 19.8458C8.92864 17.8938 6.6592 15.209 5.7776 12.7546C5.5968 12.2502 5.11776 11.2525 5.57152 10.8192C6.1888 10.3709 9.2192 10.2442 9.69216 10.9379C9.88416 11.2195 10.0054 11.6326 10.1408 11.952C10.3098 12.3504 10.4013 12.7258 10.6659 13.0787C10.9002 13.3914 11.0726 13.7059 11.2541 14.049C11.457 14.4336 11.649 14.8029 11.896 15.1574C12.0637 15.3984 12.5072 15.8774 12.7872 15.9133C13.4714 16.0006 13.4288 14.3382 13.3782 13.9325C13.3296 13.5414 13.3171 13.1264 13.3299 12.7299C13.3408 12.3917 13.3715 11.9149 13.1712 11.6384C12.8445 11.1878 12.1168 11.5251 12.0598 10.9197C12.1805 10.7475 12.1546 10.5952 12.9574 10.3309C13.5894 10.1229 13.9978 10.1296 14.4147 10.1629C15.2643 10.231 16.1658 10.001 16.9853 10.2765C17.769 10.5405 17.6477 11.6538 17.6218 12.3213C17.5866 13.2326 17.624 14.1213 17.6218 15.0461C17.6208 15.4672 17.6035 15.8768 18.1171 15.8426C18.5984 15.8102 18.6474 15.4058 18.8771 15.0714C19.1968 14.6054 19.4899 14.1334 19.815 13.6691C20.2538 13.0419 20.3862 12.337 20.7984 11.6944C20.9462 11.4643 21.073 10.9619 21.3005 10.7805C21.4723 10.6429 21.8 10.7018 22.008 10.7018H22.5034C22.8826 10.7062 23.2691 10.7117 23.6586 10.7254C24.2198 10.745 24.8483 10.623 25.4048 10.7014C27.8054 11.0403 22.3869 16.1757 22.6691 17.0918C22.864 17.7248 24.0998 18.4333 24.5459 18.952C25.1398 19.6416 26.9626 21.016 25.5446 21.9037Z" fill="#4C75A3"/>
</svg>
