<svg width="32" height="32" viewBox="0 0 32 32" fill="none" xmlns="http://www.w3.org/2000/svg">
<path d="M28.5661 0H3.4339C1.53741 0 0 1.53741 0 3.4339V28.5661C0 30.4626 1.53741 32 3.4339 32H28.5661C30.4626 32 32 30.4626 32 28.5661V3.4339C32 1.53741 30.4626 0 28.5661 0Z" fill="#2AB200"/>
<path fill-rule="evenodd" clip-rule="evenodd" d="M16.1742 4.97668C22.1462 4.97668 26.9735 9.80406 26.9735 15.7263C26.9735 21.6983 22.1462 26.5257 16.1742 26.5257C14.283 26.5257 12.4417 26.028 10.8989 25.182L5.02643 27.0233L6.8678 21.2504C5.92223 19.6579 5.3748 17.7667 5.3748 15.7263C5.3748 9.80406 10.2022 4.97668 16.1742 4.97668ZM13.6858 14.93C13.6858 14.93 14.4821 16.224 15.776 17.2691C17.07 18.2644 17.7667 18.4635 17.7667 18.4635C17.7667 18.4635 18.9113 17.0202 19.0606 17.0202C19.2099 16.9705 20.2053 17.4184 20.6532 17.6672C21.0513 17.8663 21.6485 18.2146 21.6485 18.3639C21.6485 18.4635 21.5987 19.3593 21.3001 19.7076C21.0015 20.0062 20.1555 20.8025 19.3592 20.703C15.4774 20.4044 11.8942 16.8709 11.2473 14.2831C11.1477 13.8352 11.1975 12.0933 11.5459 11.6454C11.944 11.1975 12.1928 10.8989 12.6905 10.8492C13.1882 10.7994 13.4868 10.8492 13.6361 11.1975C13.8351 11.5459 14.5816 13.238 14.6314 13.437C14.6812 13.6361 13.6361 14.6314 13.6858 14.93ZM12.1431 23.7885C13.3375 24.3857 14.7309 24.7341 16.1742 24.7341C21.1508 24.7341 25.1322 20.703 25.1322 15.7263C25.1322 10.7994 21.1508 6.76829 16.1742 6.76829C11.1975 6.76829 7.1664 10.7994 7.1664 15.7263C7.1664 17.6672 7.81336 19.4588 8.8087 20.902L7.81336 24.3359L11.2473 23.2908L12.1431 23.7885Z" fill="white"/>
<path fill-rule="evenodd" clip-rule="evenodd" d="M26.9736 15.7263C26.9736 24.0373 18.0155 29.1633 10.8989 25.182L5.02643 27.0233L10.0031 32H28.5163L32 28.5163V16.6221L25.1819 9.80405C26.2768 11.4961 26.9736 13.5366 26.9736 15.7263Z" fill="#229000"/>
<path fill-rule="evenodd" clip-rule="evenodd" d="M12.1431 23.7885C18.0155 26.7247 25.1322 22.4946 25.1322 15.7263C25.1322 10.7994 21.1508 6.76828 16.1742 6.76828C8.85846 6.76828 4.67806 15.0296 8.8087 20.902L7.81336 24.3359L11.2473 23.2908L12.1431 23.7885ZM19.3592 20.703C15.4774 20.4044 11.8942 16.8709 11.2473 14.2831C10.9984 13.238 11.297 10.9985 12.6905 10.8492C13.1882 10.7994 13.4868 10.8492 13.6361 11.1975C13.8351 11.5459 14.5816 13.238 14.6314 13.437C14.6812 13.6361 13.6361 14.6314 13.6858 14.93C14.2333 15.8756 16.3235 18.1151 17.7667 18.4635C19.1602 16.7216 18.8118 16.7216 20.6532 17.6672C21.0513 17.8663 21.6485 18.2146 21.6485 18.3639C21.6485 19.8569 20.3048 20.8025 19.3592 20.703Z" fill="#229000"/>
</svg>
